<mxfile host="app.diagrams.net" modified="2024-05-14T14:44:01.197Z" agent="Mozilla/5.0 (Windows NT 10.0; Win64; x64) AppleWebKit/537.36 (KHTML, like Gecko) Chrome/124.0.0.0 Safari/537.36" version="24.3.1" etag="0oA_luHbUr_A3ab7NrkB" type="device">
  <diagram id="LmGmQ72dtOYCiAaTyMB5" name="Page-1">
    <mxGraphModel dx="1644" dy="412" grid="1" gridSize="10" guides="1" tooltips="1" connect="1" arrows="1" fold="1" page="1" pageScale="1" pageWidth="850" pageHeight="1100" math="0" shadow="0">
      <root>
        <mxCell id="0" />
        <mxCell id="1" parent="0" />
        <mxCell id="3" style="edgeStyle=none;html=1;exitX=0.5;exitY=0;exitDx=0;exitDy=0;startArrow=none;startFill=0;endArrow=none;endFill=0;" parent="1" source="2" target="4" edge="1">
          <mxGeometry relative="1" as="geometry">
            <mxPoint x="280" y="320" as="targetPoint" />
          </mxGeometry>
        </mxCell>
        <mxCell id="9" style="edgeStyle=none;html=1;entryX=0.5;entryY=0;entryDx=0;entryDy=0;startArrow=none;startFill=0;endArrow=none;endFill=0;" parent="1" source="2" target="6" edge="1">
          <mxGeometry relative="1" as="geometry" />
        </mxCell>
        <mxCell id="2" value="BE orchestrator" style="rounded=0;whiteSpace=wrap;html=1;" parent="1" vertex="1">
          <mxGeometry x="80" y="400" width="120" height="60" as="geometry" />
        </mxCell>
        <mxCell id="11" style="edgeStyle=none;html=1;exitX=0.5;exitY=1;exitDx=0;exitDy=0;entryX=0;entryY=0.5;entryDx=0;entryDy=0;startArrow=none;startFill=0;endArrow=none;endFill=0;" parent="1" source="10" target="2" edge="1">
          <mxGeometry relative="1" as="geometry" />
        </mxCell>
        <mxCell id="10" value="1 -&amp;gt; 3 -&amp;gt; 4-&amp;gt;6&lt;div&gt;&lt;br/&gt;&lt;/div&gt;" style="rounded=0;whiteSpace=wrap;html=1;fillColor=#0050ef;fontColor=#ffffff;strokeColor=#001DBC;" parent="1" vertex="1">
          <mxGeometry x="-70" y="340" width="120" height="30" as="geometry" />
        </mxCell>
        <mxCell id="16" style="edgeStyle=none;html=1;entryX=0.5;entryY=0;entryDx=0;entryDy=0;startArrow=none;startFill=0;endArrow=none;endFill=0;exitX=0.5;exitY=1;exitDx=0;exitDy=0;" parent="1" source="2" target="14" edge="1">
          <mxGeometry relative="1" as="geometry">
            <mxPoint x="326.66666666666674" y="400" as="sourcePoint" />
          </mxGeometry>
        </mxCell>
        <mxCell id="19" value="" style="group" parent="1" vertex="1" connectable="0">
          <mxGeometry x="20" y="570" width="150" height="60" as="geometry" />
        </mxCell>
        <mxCell id="6" value="News" style="rounded=0;whiteSpace=wrap;html=1;" parent="19" vertex="1">
          <mxGeometry x="30" width="120" height="60" as="geometry" />
        </mxCell>
        <mxCell id="13" value="2" style="ellipse;whiteSpace=wrap;html=1;aspect=fixed;" parent="19" vertex="1">
          <mxGeometry y="15" width="30" height="30" as="geometry" />
        </mxCell>
        <mxCell id="20" value="" style="group" parent="1" vertex="1" connectable="0">
          <mxGeometry x="50" y="200" width="150" height="60" as="geometry" />
        </mxCell>
        <mxCell id="4" value="Client Authentication" style="rounded=0;whiteSpace=wrap;html=1;" parent="20" vertex="1">
          <mxGeometry x="30" width="120" height="60" as="geometry" />
        </mxCell>
        <mxCell id="8" value="1" style="ellipse;whiteSpace=wrap;html=1;aspect=fixed;" parent="20" vertex="1">
          <mxGeometry y="15" width="30" height="30" as="geometry" />
        </mxCell>
        <mxCell id="21" value="" style="group" parent="1" vertex="1" connectable="0">
          <mxGeometry x="210" y="640" width="150" height="60" as="geometry" />
        </mxCell>
        <mxCell id="14" value="Supermarket" style="rounded=0;whiteSpace=wrap;html=1;" parent="21" vertex="1">
          <mxGeometry x="30" width="120" height="60" as="geometry" />
        </mxCell>
        <mxCell id="15" value="3" style="ellipse;whiteSpace=wrap;html=1;aspect=fixed;" parent="21" vertex="1">
          <mxGeometry y="15" width="30" height="30" as="geometry" />
        </mxCell>
        <mxCell id="22" value="" style="group" parent="1" vertex="1" connectable="0">
          <mxGeometry x="350" y="560" width="150" height="60" as="geometry" />
        </mxCell>
        <mxCell id="23" value="Product Catalog Management" style="rounded=0;whiteSpace=wrap;html=1;" parent="22" vertex="1">
          <mxGeometry x="30" width="120" height="60" as="geometry" />
        </mxCell>
        <mxCell id="24" value="4" style="ellipse;whiteSpace=wrap;html=1;aspect=fixed;" parent="22" vertex="1">
          <mxGeometry y="15" width="30" height="30" as="geometry" />
        </mxCell>
        <mxCell id="25" style="edgeStyle=none;html=1;exitX=0.5;exitY=0;exitDx=0;exitDy=0;entryX=0.5;entryY=1;entryDx=0;entryDy=0;startArrow=none;startFill=0;endArrow=none;endFill=0;" parent="1" source="23" target="2" edge="1">
          <mxGeometry relative="1" as="geometry" />
        </mxCell>
        <mxCell id="26" value="" style="group" parent="1" vertex="1" connectable="0">
          <mxGeometry x="370" y="450" width="150" height="60" as="geometry" />
        </mxCell>
        <mxCell id="27" value="Product Prices" style="rounded=0;whiteSpace=wrap;html=1;" parent="26" vertex="1">
          <mxGeometry x="30" width="120" height="60" as="geometry" />
        </mxCell>
        <mxCell id="28" value="5" style="ellipse;whiteSpace=wrap;html=1;aspect=fixed;" parent="26" vertex="1">
          <mxGeometry y="15" width="30" height="30" as="geometry" />
        </mxCell>
        <mxCell id="29" value="" style="edgeStyle=none;html=1;startArrow=none;startFill=0;endArrow=none;endFill=0;entryX=1;entryY=0.75;entryDx=0;entryDy=0;" parent="1" source="27" target="2" edge="1">
          <mxGeometry relative="1" as="geometry" />
        </mxCell>
        <mxCell id="30" value="" style="group" parent="1" vertex="1" connectable="0">
          <mxGeometry x="360" y="350" width="150" height="60" as="geometry" />
        </mxCell>
        <mxCell id="31" value="Product Review" style="rounded=0;whiteSpace=wrap;html=1;" parent="30" vertex="1">
          <mxGeometry x="30" width="120" height="60" as="geometry" />
        </mxCell>
        <mxCell id="32" value="6" style="ellipse;whiteSpace=wrap;html=1;aspect=fixed;" parent="30" vertex="1">
          <mxGeometry y="15" width="30" height="30" as="geometry" />
        </mxCell>
        <mxCell id="33" style="edgeStyle=none;html=1;exitX=0;exitY=0.25;exitDx=0;exitDy=0;startArrow=none;startFill=0;endArrow=none;endFill=0;entryX=1;entryY=0.5;entryDx=0;entryDy=0;" parent="1" source="31" target="2" edge="1">
          <mxGeometry relative="1" as="geometry" />
        </mxCell>
        <mxCell id="34" value="" style="group" parent="1" vertex="1" connectable="0">
          <mxGeometry x="330" y="250" width="150" height="60" as="geometry" />
        </mxCell>
        <mxCell id="35" value="Product Specific Information" style="rounded=0;whiteSpace=wrap;html=1;" parent="34" vertex="1">
          <mxGeometry x="30" width="120" height="60" as="geometry" />
        </mxCell>
        <mxCell id="36" value="7" style="ellipse;whiteSpace=wrap;html=1;aspect=fixed;" parent="34" vertex="1">
          <mxGeometry y="15" width="30" height="30" as="geometry" />
        </mxCell>
        <mxCell id="37" style="edgeStyle=none;html=1;exitX=0;exitY=0.75;exitDx=0;exitDy=0;entryX=1;entryY=0.5;entryDx=0;entryDy=0;startArrow=none;startFill=0;endArrow=none;endFill=0;" parent="1" source="35" target="2" edge="1">
          <mxGeometry relative="1" as="geometry" />
        </mxCell>
        <mxCell id="38" value="" style="group" parent="1" vertex="1" connectable="0">
          <mxGeometry x="320" y="150" width="150" height="60" as="geometry" />
        </mxCell>
        <mxCell id="39" value="Statistics" style="rounded=0;whiteSpace=wrap;html=1;" parent="38" vertex="1">
          <mxGeometry x="30" width="120" height="60" as="geometry" />
        </mxCell>
        <mxCell id="40" value="8" style="ellipse;whiteSpace=wrap;html=1;aspect=fixed;" parent="38" vertex="1">
          <mxGeometry y="15" width="30" height="30" as="geometry" />
        </mxCell>
        <mxCell id="41" style="edgeStyle=none;html=1;exitX=0;exitY=0.75;exitDx=0;exitDy=0;entryX=0.75;entryY=0;entryDx=0;entryDy=0;startArrow=none;startFill=0;endArrow=none;endFill=0;" parent="1" source="39" target="2" edge="1">
          <mxGeometry relative="1" as="geometry" />
        </mxCell>
        <mxCell id="42" value="" style="group" parent="1" vertex="1" connectable="0">
          <mxGeometry x="200" y="70" width="150" height="60" as="geometry" />
        </mxCell>
        <mxCell id="43" value="QRreader" style="rounded=0;whiteSpace=wrap;html=1;" parent="42" vertex="1">
          <mxGeometry x="30" width="120" height="60" as="geometry" />
        </mxCell>
        <mxCell id="44" value="9" style="ellipse;whiteSpace=wrap;html=1;aspect=fixed;" parent="42" vertex="1">
          <mxGeometry y="15" width="30" height="30" as="geometry" />
        </mxCell>
        <mxCell id="45" style="edgeStyle=none;html=1;exitX=0.5;exitY=1;exitDx=0;exitDy=0;entryX=0.5;entryY=0;entryDx=0;entryDy=0;startArrow=none;startFill=0;endArrow=none;endFill=0;" parent="1" source="43" target="2" edge="1">
          <mxGeometry relative="1" as="geometry" />
        </mxCell>
      </root>
    </mxGraphModel>
  </diagram>
</mxfile>
